<svg data-v-423bf9ae="" xmlns="http://www.w3.org/2000/svg" viewBox="0 0 154.69721282566573 60" class="font"><!----><!----><!----><g data-v-423bf9ae="" id="d5de21c1-9766-4b20-a471-1cdad34cba5b" fill="black" transform="matrix(3.2733224358829616,0,0,3.2733224358829616,0.000001604134908461674,-9.5367431640625e-7)"><path d="M0 0.07L0 0L0 0Q0.35 0.03 0.70 0.04L0.70 0.04L0.70 0.04Q0.99 0.06 1.31 0.06L1.31 0.06L1.31 0.06Q1.62 0.07 1.86 0.07L1.86 0.07L1.86 0.07Q2.11 0.07 2.42 0.06L2.42 0.06L2.42 0.06Q2.73 0.04 3.05 0.04L3.05 0.04L3.05 0.04Q3.37 0.03 3.70 0.01L3.70 0.01L3.70 0.01Q4.03 0 4.31 0L4.31 0L4.31 0Q4.84 0 5.33 0.22L5.33 0.22L5.33 0.22Q5.81 0.43 6.18 0.83L6.18 0.83L6.18 0.83Q6.55 1.23 6.77 1.79L6.77 1.79L6.77 1.79Q6.99 2.34 6.99 3.01L6.99 3.01L6.99 3.01Q6.99 3.42 6.87 3.75L6.87 3.75L6.87 3.75Q6.75 4.09 6.55 4.37L6.55 4.37L6.55 4.37Q6.36 4.65 6.10 4.87L6.10 4.87L6.10 4.87Q5.85 5.10 5.60 5.26L5.60 5.26L5.60 5.26Q5.00 5.67 4.23 5.91L4.23 5.91L4.23 5.91Q5.36 6.06 6.26 6.55L6.26 6.55L6.26 6.55Q6.64 6.76 7.01 7.07L7.01 7.07L7.01 7.07Q7.38 7.38 7.67 7.80L7.67 7.80L7.67 7.80Q7.95 8.23 8.13 8.79L8.13 8.79L8.13 8.79Q8.30 9.35 8.30 10.08L8.30 10.08L8.30 10.08Q8.30 10.92 7.97 11.64L7.97 11.64L7.97 11.64Q7.64 12.36 7.10 12.89L7.10 12.89L7.10 12.89Q6.55 13.41 5.86 13.71L5.86 13.71L5.86 13.71Q5.17 14 4.44 14L4.44 14L4.44 14Q3.84 14 3.41 13.97L3.41 13.97L3.41 13.97Q2.98 13.94 2.67 13.92L2.67 13.92L2.67 13.92Q2.35 13.89 2.12 13.86L2.12 13.86L2.12 13.86Q1.89 13.83 1.68 13.83L1.68 13.83L1.68 13.83Q1.33 13.83 1.10 13.86L1.10 13.86L1.10 13.86Q0.87 13.89 0.73 13.92L0.73 13.92L0.73 13.92Q0.56 13.96 0.46 14L0.46 14L0.46 13.83L0.92 13.71L0.92 13.71Q1.01 13.05 1.08 12.08L1.08 12.08L1.08 12.08Q1.13 11.26 1.18 10.01L1.18 10.01L1.18 10.01Q1.23 8.76 1.23 7.01L1.23 7.01L1.23 7.01Q1.23 6.45 1.21 5.74L1.21 5.74L1.21 5.74Q1.19 5.03 1.16 4.28L1.16 4.28L1.16 4.28Q1.12 3.54 1.07 2.82L1.07 2.82L1.07 2.82Q1.02 2.10 0.95 1.53L0.95 1.53L0.95 1.53Q0.88 0.97 0.80 0.62L0.80 0.62L0.80 0.62Q0.71 0.27 0.62 0.25L0.62 0.25L0.62 0.25Q0.45 0.22 0.33 0.19L0.33 0.19L0.33 0.19Q0.21 0.15 0.14 0.13L0.14 0.13L0.14 0.13Q0.06 0.10 0 0.07L0 0.07ZM2.53 5.64L2.53 5.64L2.53 5.64Q2.53 6.44 2.55 7.31L2.55 7.31L2.55 7.31Q2.56 8.19 2.59 9.08L2.59 9.08L2.59 9.08Q2.62 9.97 2.66 10.84L2.66 10.84L2.66 10.84Q2.70 11.70 2.76 12.49L2.76 12.49L2.76 12.49Q2.95 13.12 3.40 13.41L3.40 13.41L3.40 13.41Q3.85 13.71 4.38 13.71L4.38 13.71L4.38 13.71Q4.90 13.71 5.27 13.37L5.27 13.37L5.27 13.37Q5.64 13.03 5.87 12.49L5.87 12.49L5.87 12.49Q6.09 11.96 6.20 11.26L6.20 11.26L6.20 11.26Q6.30 10.57 6.30 9.86L6.30 9.86L6.30 9.86Q6.30 8.53 5.96 7.76L5.96 7.76L5.96 7.76Q5.61 6.99 5.10 6.59L5.10 6.59L5.10 6.59Q4.59 6.20 4.00 6.10L4.00 6.10L4.00 6.10Q3.42 5.99 2.93 5.99L2.93 5.99L2.93 5.99Q3.61 5.94 4.04 5.71L4.04 5.71L4.04 5.71Q4.47 5.47 4.69 5.07L4.69 5.07L4.69 5.07Q4.91 4.68 4.99 4.11L4.99 4.11L4.99 4.11Q5.07 3.54 5.07 2.80L5.07 2.80L5.07 2.80Q5.07 2.30 4.90 1.79L4.90 1.79L4.90 1.79Q4.73 1.27 4.43 0.90L4.43 0.90L4.43 0.90Q4.13 0.52 3.70 0.32L3.70 0.32L3.70 0.32Q3.28 0.13 2.76 0.25L2.76 0.25L2.76 0.25Q2.65 1.34 2.59 2.67L2.59 2.67L2.59 2.67Q2.53 3.99 2.53 5.64ZM11.96 5.24L11.96 5.24L11.96 5.24Q11.77 5.38 11.59 5.53L11.59 5.53L11.59 5.53Q11.44 5.67 11.25 5.85L11.25 5.85L11.25 5.85Q11.06 6.03 10.91 6.23L10.91 6.23L10.91 6.23Q10.75 5.98 10.58 5.80L10.58 5.80L10.58 5.80Q10.42 5.61 10.26 5.49L10.26 5.49L10.26 5.49Q10.09 5.33 9.93 5.24L9.93 5.24L9.93 5.24Q10.11 5.10 10.28 4.94L10.28 4.94L10.28 4.94Q10.43 4.80 10.60 4.62L10.60 4.62L10.60 4.62Q10.77 4.44 10.91 4.23L10.91 4.23L10.91 4.23Q11.06 4.47 11.24 4.65L11.24 4.65L11.24 4.65Q11.42 4.84 11.58 4.97L11.58 4.97L11.58 4.97Q11.76 5.12 11.96 5.24ZM9.70 8.12L9.70 8.12L9.70 8.12Q10.04 7.98 10.34 7.88L10.34 7.88L10.34 7.88Q10.64 7.77 10.91 7.65L10.91 7.65L10.91 7.65Q11.19 7.53 11.45 7.38L11.45 7.38L11.45 7.38Q11.70 7.24 11.96 7.01L11.96 7.01L11.96 7.01Q12.07 7.39 12.05 7.93L12.05 7.93L12.05 7.93Q12.04 8.47 11.99 9.06L11.99 9.06L11.99 9.06Q11.94 9.66 11.93 10.26L11.93 10.26L11.93 10.26Q11.91 10.86 12.03 11.35L12.03 11.35L12.03 11.35Q12.15 11.84 12.45 12.17L12.45 12.17L12.45 12.17Q12.75 12.50 13.36 12.56L13.36 12.56L13.36 12.56Q12.75 12.95 12.33 13.30L12.33 13.30L12.33 13.30Q11.90 13.65 11.48 14.01L11.48 14.01L11.48 14.01Q11.35 13.96 11.20 13.89L11.20 13.89L11.20 13.89Q11.05 13.82 10.91 13.69L10.91 13.69L10.91 13.69Q10.77 13.55 10.66 13.35L10.66 13.35L10.66 13.35Q10.56 13.15 10.54 12.82L10.54 12.82L10.54 12.82Q10.56 11.87 10.58 11.01L10.58 11.01L10.58 11.01Q10.61 10.15 10.56 9.50L10.56 9.50L10.56 9.50Q10.50 8.85 10.31 8.48L10.31 8.48L10.31 8.48Q10.12 8.11 9.70 8.12ZM24.04 7L24.04 7L24.04 7Q24.67 7 25.19 7.25L25.19 7.25L25.19 7.25Q25.70 7.50 26.08 7.92L26.08 7.92L26.08 7.92Q26.46 8.33 26.66 8.86L26.66 8.86L26.66 8.86Q26.87 9.39 26.87 9.95L26.87 9.95L26.87 9.95Q26.87 10.91 26.55 11.84L26.55 11.84L26.55 11.84Q26.24 12.78 25.62 13.52L25.62 13.52L25.62 13.52Q25.00 14.27 24.11 14.73L24.11 14.73L24.11 14.73Q23.21 15.20 22.04 15.20L22.04 15.20L22.04 15.20Q21.49 15.20 21.17 15.15L21.17 15.15L21.17 15.15Q20.85 15.11 20.57 15.04L20.57 15.04L20.57 15.04Q20.29 14.98 19.95 14.93L19.95 14.93L19.95 14.93Q19.61 14.88 19.04 14.88L19.04 14.88L19.04 14.88Q18.80 14.88 18.46 15.02L18.46 15.02L18.46 15.02Q18.12 15.16 17.79 15.42L17.79 15.42L17.79 15.42Q17.47 15.68 17.24 16.07L17.24 16.07L17.24 16.07Q17.01 16.46 17.01 16.97L17.01 16.97L17.01 16.97Q17.01 17.21 17.12 17.39L17.12 17.39L17.12 17.39Q17.23 17.58 17.42 17.72L17.42 17.72L17.42 17.72Q17.61 17.86 17.85 17.96L17.85 17.96L17.85 17.96Q18.09 18.06 18.34 18.13L18.34 18.13L18.34 18.13Q18.93 18.28 19.68 18.33L19.68 18.33L19.68 18.33Q18.89 18.31 18.27 18.16L18.27 18.16L18.27 18.16Q18.00 18.10 17.75 18.00L17.75 18.00L17.75 18.00Q17.50 17.91 17.30 17.76L17.30 17.76L17.30 17.76Q17.11 17.61 16.99 17.42L16.99 17.42L16.99 17.42Q16.87 17.22 16.87 16.97L16.87 16.97L16.87 16.97Q16.87 16.46 17.16 15.97L17.16 15.97L17.16 15.97Q17.46 15.48 17.95 15.10L17.95 15.10L17.95 15.10Q18.44 14.71 19.08 14.48L19.08 14.48L19.08 14.48Q19.73 14.24 20.43 14.24L20.43 14.24L20.43 14.24Q20.93 14.24 21.25 14.27L21.25 14.27L21.25 14.27Q21.56 14.31 21.85 14.35L21.85 14.35L21.85 14.35Q22.15 14.39 22.51 14.43L22.51 14.43L22.51 14.43Q22.86 14.46 23.46 14.46L23.46 14.46L23.46 14.46Q24.28 14.46 24.71 14.15L24.71 14.15L24.71 14.15Q25.14 13.85 25.34 13.38L25.34 13.38L25.34 13.38Q25.54 12.92 25.56 12.39L25.56 12.39L25.56 12.39Q25.58 11.86 25.58 11.42L25.58 11.42L25.58 11.42Q25.58 10.79 25.33 10.19L25.33 10.19L25.33 10.19Q25.07 9.59 24.65 9.13L24.65 9.13L24.65 9.13Q24.22 8.67 23.67 8.39L23.67 8.39L23.67 8.39Q23.11 8.11 22.51 8.11L22.51 8.11L22.51 8.11Q22.19 8.11 22.00 8.16L22.00 8.16L22.00 8.16Q21.81 8.22 21.70 8.27L21.70 8.27L21.70 8.27Q21.95 8.64 22.07 9.09L22.07 9.09L22.07 9.09Q22.19 9.55 22.19 9.95L22.19 9.95L22.19 9.95Q22.19 10.96 21.86 11.71L21.86 11.71L21.86 11.71Q21.53 12.46 21.14 12.96L21.14 12.96L21.14 12.96Q20.68 13.55 20.09 13.99L20.09 13.99L20.09 13.99Q20.29 13.64 20.44 13.22L20.44 13.22L20.44 13.22Q20.58 12.85 20.69 12.40L20.69 12.40L20.69 12.40Q20.80 11.94 20.80 11.42L20.80 11.42L20.80 11.42Q20.80 10.79 20.57 10.19L20.57 10.19L20.57 10.19Q20.33 9.59 19.92 9.13L19.92 9.13L19.92 9.13Q19.52 8.67 18.98 8.39L18.98 8.39L18.98 8.39Q18.45 8.11 17.85 8.11L17.85 8.11L17.85 8.11Q17.54 8.11 17.25 8.18L17.25 8.18L17.25 8.18Q16.95 8.26 16.79 8.46L16.79 8.46L16.79 8.46Q16.79 8.72 16.77 9.21L16.77 9.21L16.77 9.21Q16.74 9.70 16.74 10.35L16.74 10.35L16.74 10.35Q16.74 11.00 16.79 11.77L16.79 11.77L16.79 11.77Q16.83 12.54 16.95 13.37L16.95 13.37L16.95 13.37Q16.46 13.37 15.97 13.56L15.97 13.56L15.97 13.56Q15.47 13.75 15.09 13.99L15.09 13.99L15.09 13.99Q15.13 13.73 15.18 13.22L15.18 13.22L15.18 13.22Q15.22 12.70 15.25 12.07L15.25 12.07L15.25 12.07Q15.27 11.45 15.27 10.79L15.27 10.79L15.27 10.79Q15.27 10.12 15.22 9.55L15.22 9.55L15.22 9.55Q15.18 8.99 15.06 8.59L15.06 8.59L15.06 8.59Q14.95 8.19 14.77 8.11L14.77 8.11L14.77 8.11Q14.64 8.08 14.53 8.08L14.53 8.08L14.53 8.08Q14.41 8.08 14.29 8.09L14.29 8.09L14.29 8.09Q14.17 8.11 14.06 8.13L14.06 8.13L14.06 8.13Q14.53 7.83 14.97 7.57L14.97 7.57L14.97 7.57Q15.33 7.36 15.71 7.18L15.71 7.18L15.71 7.18Q16.10 7 16.31 7L16.31 7L16.31 7Q16.49 7 16.59 7.01L16.59 7.01L16.59 7.01Q16.69 7.03 16.73 7.13L16.73 7.13L16.73 7.13Q16.77 7.24 16.78 7.46L16.78 7.46L16.78 7.46Q16.79 7.69 16.79 8.11L16.79 8.11L16.79 8.11Q17.33 7.57 18.04 7.29L18.04 7.29L18.04 7.29Q18.75 7 19.38 7L19.38 7L19.38 7Q20.05 7 20.62 7.27L20.62 7.27L20.62 7.27Q21.20 7.55 21.55 8.02L21.55 8.02L21.55 8.02Q22.15 7.55 22.79 7.27L22.79 7.27L22.79 7.27Q23.44 7 24.04 7ZM37.37 7L37.37 7L37.37 7Q38.00 7 38.51 7.25L38.51 7.25L38.51 7.25Q39.03 7.50 39.41 7.92L39.41 7.92L39.41 7.92Q39.79 8.33 39.99 8.86L39.99 8.86L39.99 8.86Q40.19 9.39 40.19 9.95L40.19 9.95L40.19 9.95Q40.19 10.91 39.88 11.84L39.88 11.84L39.88 11.84Q39.56 12.78 38.95 13.52L38.95 13.52L38.95 13.52Q38.33 14.27 37.44 14.73L37.44 14.73L37.44 14.73Q36.54 15.20 35.36 15.20L35.36 15.20L35.36 15.20Q34.82 15.20 34.50 15.15L34.50 15.15L34.50 15.15Q34.17 15.11 33.89 15.04L33.89 15.04L33.89 15.04Q33.61 14.98 33.28 14.93L33.28 14.93L33.28 14.93Q32.94 14.88 32.37 14.88L32.37 14.88L32.37 14.88Q32.13 14.88 31.79 15.02L31.79 15.02L31.79 15.02Q31.44 15.16 31.12 15.42L31.12 15.42L31.12 15.42Q30.80 15.68 30.57 16.07L30.57 16.07L30.57 16.07Q30.34 16.46 30.34 16.97L30.34 16.97L30.34 16.97Q30.34 17.21 30.45 17.39L30.45 17.39L30.45 17.39Q30.56 17.58 30.75 17.72L30.75 17.72L30.75 17.72Q30.94 17.86 31.18 17.96L31.18 17.96L31.18 17.96Q31.42 18.06 31.67 18.13L31.67 18.13L31.67 18.13Q32.26 18.28 33.01 18.33L33.01 18.33L33.01 18.33Q32.21 18.31 31.60 18.16L31.60 18.16L31.60 18.16Q31.33 18.10 31.08 18.00L31.08 18.00L31.08 18.00Q30.83 17.91 30.63 17.76L30.63 17.76L30.63 17.76Q30.44 17.61 30.32 17.42L30.32 17.42L30.32 17.42Q30.20 17.22 30.20 16.97L30.20 16.97L30.20 16.97Q30.20 16.46 30.49 15.97L30.49 15.97L30.49 15.97Q30.79 15.48 31.28 15.10L31.28 15.10L31.28 15.10Q31.77 14.71 32.41 14.48L32.41 14.48L32.41 14.48Q33.05 14.24 33.75 14.24L33.75 14.24L33.75 14.24Q34.26 14.24 34.57 14.27L34.57 14.27L34.57 14.27Q34.89 14.31 35.18 14.35L35.18 14.35L35.18 14.35Q35.48 14.39 35.83 14.43L35.83 14.43L35.83 14.43Q36.19 14.46 36.79 14.46L36.79 14.46L36.79 14.46Q37.60 14.46 38.04 14.15L38.04 14.15L38.04 14.15Q38.47 13.85 38.67 13.38L38.67 13.38L38.67 13.38Q38.86 12.92 38.88 12.39L38.88 12.39L38.88 12.39Q38.91 11.86 38.91 11.42L38.91 11.42L38.91 11.42Q38.91 10.79 38.65 10.19L38.65 10.19L38.65 10.19Q38.40 9.59 37.98 9.13L37.98 9.13L37.98 9.13Q37.55 8.67 36.99 8.39L36.99 8.39L36.99 8.39Q36.44 8.11 35.84 8.11L35.84 8.11L35.84 8.11Q35.52 8.11 35.33 8.16L35.33 8.16L35.33 8.16Q35.14 8.22 35.03 8.27L35.03 8.27L35.03 8.27Q35.28 8.64 35.40 9.09L35.40 9.09L35.40 9.09Q35.52 9.55 35.52 9.95L35.52 9.95L35.52 9.95Q35.52 10.96 35.19 11.71L35.19 11.71L35.19 11.71Q34.86 12.46 34.47 12.96L34.47 12.96L34.47 12.96Q34.01 13.55 33.42 13.99L33.42 13.99L33.42 13.99Q33.61 13.64 33.77 13.22L33.77 13.22L33.77 13.22Q33.91 12.85 34.02 12.40L34.02 12.40L34.02 12.40Q34.13 11.94 34.13 11.42L34.13 11.42L34.13 11.42Q34.13 10.79 33.89 10.19L33.89 10.19L33.89 10.19Q33.66 9.59 33.25 9.13L33.25 9.13L33.25 9.13Q32.84 8.67 32.31 8.39L32.31 8.39L32.31 8.39Q31.78 8.11 31.18 8.11L31.18 8.11L31.18 8.11Q30.87 8.11 30.58 8.18L30.58 8.18L30.58 8.18Q30.28 8.26 30.11 8.46L30.11 8.46L30.11 8.46Q30.11 8.72 30.09 9.21L30.09 9.21L30.09 9.21Q30.07 9.70 30.07 10.35L30.07 10.35L30.07 10.35Q30.07 11.00 30.11 11.77L30.11 11.77L30.11 11.77Q30.16 12.54 30.28 13.37L30.28 13.37L30.28 13.37Q29.79 13.37 29.29 13.56L29.29 13.56L29.29 13.56Q28.80 13.75 28.42 13.99L28.42 13.99L28.42 13.99Q28.46 13.73 28.50 13.22L28.50 13.22L28.50 13.22Q28.55 12.70 28.57 12.07L28.57 12.07L28.57 12.07Q28.60 11.45 28.60 10.79L28.60 10.79L28.60 10.79Q28.60 10.12 28.55 9.55L28.55 9.55L28.55 9.55Q28.50 8.99 28.39 8.59L28.39 8.59L28.39 8.59Q28.28 8.19 28.10 8.11L28.10 8.11L28.10 8.11Q27.97 8.08 27.85 8.08L27.85 8.08L27.85 8.08Q27.73 8.08 27.62 8.09L27.62 8.09L27.62 8.09Q27.50 8.11 27.38 8.13L27.38 8.13L27.38 8.13Q27.86 7.83 28.29 7.57L28.29 7.57L28.29 7.57Q28.66 7.36 29.04 7.18L29.04 7.18L29.04 7.18Q29.43 7 29.64 7L29.64 7L29.64 7Q29.82 7 29.92 7.01L29.92 7.01L29.92 7.01Q30.02 7.03 30.06 7.13L30.06 7.13L30.06 7.13Q30.10 7.24 30.11 7.46L30.11 7.46L30.11 7.46Q30.11 7.69 30.11 8.11L30.11 8.11L30.11 8.11Q30.66 7.57 31.37 7.29L31.37 7.29L31.37 7.29Q32.07 7 32.70 7L32.70 7L32.70 7Q33.38 7 33.95 7.27L33.95 7.27L33.95 7.27Q34.52 7.55 34.87 8.02L34.87 8.02L34.87 8.02Q35.48 7.55 36.12 7.27L36.12 7.27L36.12 7.27Q36.76 7 37.37 7ZM43.99 10.86L43.99 10.86L43.99 10.86Q43.72 10.86 43.34 10.81L43.34 10.81L43.34 10.81Q42.95 10.75 42.59 10.58L42.59 10.58L42.59 10.58Q42.24 10.40 41.99 10.08L41.99 10.08L41.99 10.08Q41.73 9.76 41.73 9.23L41.73 9.23L41.73 9.23Q41.73 8.81 41.95 8.48L41.95 8.48L41.95 8.48Q42.17 8.15 42.50 7.90L42.50 7.90L42.50 7.90Q42.84 7.64 43.26 7.48L43.26 7.48L43.26 7.48Q43.68 7.31 44.07 7.20L44.07 7.20L44.07 7.20Q44.46 7.08 44.79 7.04L44.79 7.04L44.79 7.04Q45.12 6.99 45.29 6.99L45.29 6.99L45.29 6.99Q45.42 6.99 45.60 6.99L45.60 6.99L45.60 6.99Q45.79 7 45.98 7.02L45.98 7.02L45.98 7.02Q46.17 7.04 46.35 7.06L46.35 7.06L46.35 7.06Q46.52 7.08 46.61 7.13L46.61 7.13L46.61 7.13Q46.55 7.31 46.49 7.54L46.49 7.54L46.49 7.54Q46.42 7.77 46.37 8.02L46.37 8.02L46.37 8.02Q46.31 8.26 46.28 8.50L46.28 8.50L46.28 8.50Q46.24 8.75 46.24 8.96L46.24 8.96L46.24 8.96Q46.14 8.75 45.98 8.50L45.98 8.50L45.98 8.50Q45.81 8.26 45.58 8.04L45.58 8.04L45.58 8.04Q45.35 7.83 45.05 7.69L45.05 7.69L45.05 7.69Q44.76 7.55 44.41 7.55L44.41 7.55L44.41 7.55Q44.14 7.55 43.94 7.63L43.94 7.63L43.94 7.63Q43.74 7.71 43.59 7.85L43.59 7.85L43.59 7.85Q43.44 7.99 43.37 8.16L43.37 8.16L43.37 8.16Q43.29 8.32 43.29 8.47L43.29 8.47L43.29 8.47Q43.29 8.79 43.44 9.04L43.44 9.04L43.44 9.04Q43.60 9.28 43.85 9.45L43.85 9.45L43.85 9.45Q44.10 9.62 44.43 9.70L44.43 9.70L44.43 9.70Q44.76 9.79 45.11 9.79L45.11 9.79L45.11 9.79Q45.68 9.79 46.09 9.90L46.09 9.90L46.09 9.90Q46.51 10.01 46.77 10.19L46.77 10.19L46.77 10.19Q47.03 10.37 47.14 10.61L47.14 10.61L47.14 10.61Q47.26 10.84 47.26 11.06L47.26 11.06L47.26 11.06Q47.26 11.80 46.85 12.36L46.85 12.36L46.85 12.36Q46.44 12.91 45.84 13.27L45.84 13.27L45.84 13.27Q45.25 13.64 44.60 13.82L44.60 13.82L44.60 13.82Q43.95 14 43.47 14L43.47 14L43.47 14Q42.76 14 42.20 13.82L42.20 13.82L42.20 13.82Q41.64 13.64 41.41 13.44L41.41 13.44L41.41 13.44Q41.57 13.20 41.68 12.77L41.68 12.77L41.68 12.77Q41.79 12.33 41.83 11.76L41.83 11.76L41.83 11.76Q42.01 12.11 42.32 12.40L42.32 12.40L42.32 12.40Q42.63 12.68 43.01 12.88L43.01 12.88L43.01 12.88Q43.39 13.08 43.81 13.19L43.81 13.19L43.81 13.19Q44.24 13.30 44.69 13.30L44.69 13.30L44.69 13.30Q44.84 13.30 45.04 13.26L45.04 13.26L45.04 13.26Q45.23 13.22 45.40 13.12L45.40 13.12L45.40 13.12Q45.57 13.02 45.69 12.85L45.69 12.85L45.69 12.85Q45.81 12.68 45.81 12.42L45.81 12.42L45.81 12.42Q45.81 12.17 45.68 11.89L45.68 11.89L45.68 11.89Q45.56 11.62 45.32 11.39L45.32 11.39L45.32 11.39Q45.08 11.16 44.74 11.01L44.74 11.01L44.74 11.01Q44.41 10.86 43.99 10.86Z"></path></g><!----><!----></svg>